<?xml version="1.0" encoding="UTF-8" standalone="no"?>
<svg
   xmlns:dc="http://purl.org/dc/elements/1.1/"
   xmlns:cc="http://creativecommons.org/ns#"
   xmlns:rdf="http://www.w3.org/1999/02/22-rdf-syntax-ns#"
   xmlns:svg="http://www.w3.org/2000/svg"
   xmlns="http://www.w3.org/2000/svg"
   xmlns:sodipodi="http://sodipodi.sourceforge.net/DTD/sodipodi-0.dtd"
   xmlns:inkscape="http://www.inkscape.org/namespaces/inkscape"
   inkscape:version="1.0 (4035a4fb49, 2020-05-01)"
   sodipodi:docname="signature2.svg"
   viewBox="0 0 234.92613 144.59853"
   height="144.59853"
   width="234.92613"
   xml:space="preserve"
   id="svg2"
   version="1.1"><metadata
     id="metadata8"><rdf:RDF><cc:Work
         rdf:about=""><dc:format>image/svg+xml</dc:format><dc:type
           rdf:resource="http://purl.org/dc/dcmitype/StillImage" /><dc:title></dc:title></cc:Work></rdf:RDF></metadata><defs
     id="defs6" /><sodipodi:namedview
     inkscape:current-layer="g10"
     inkscape:window-maximized="0"
     inkscape:window-y="0"
     inkscape:window-x="0"
     inkscape:cy="72.299263"
     inkscape:cx="117.46307"
     inkscape:zoom="4.7026759"
     showgrid="false"
     id="namedview4"
     inkscape:window-height="480"
     inkscape:window-width="859"
     inkscape:pageshadow="2"
     inkscape:pageopacity="0"
     guidetolerance="10"
     gridtolerance="10"
     objecttolerance="10"
     borderopacity="1"
     bordercolor="#666666"
     pagecolor="#ffffff" /><g
     transform="matrix(1.3333333,0,0,1.3333333,0,2.9482966e-6)"
     inkscape:label="signature2"
     inkscape:groupmode="layer"
     id="g10"><g
       id="g12"><g
         id="g14"><path
           id="path16"
           style="fill:none;stroke:#000000;stroke-width:4.25197;stroke-linecap:butt;stroke-linejoin:miter;stroke-miterlimit:4;stroke-dasharray:none;stroke-opacity:1"
           d="m 52.191,51.387 c -4.683,1.258 -7.461,3.898 -11.109,7.238 -3.32,3.035 -6.355,6.613 -9.508,9.828 -0.418,0.426 -1.636,0.852 -1.238,1.297 0.223,0.246 6.383,-0.219 8.039,-0.543 7.492,-1.473 13.793,-3.473 21.379,-5.613 1.738,-0.492 5.719,-1.891 7.746,-1.621 0.555,0.074 0.785,2.086 -0.824,4.539 -3.801,5.785 -11.617,16.746 -18.153,20.972 -0.539,0.352 0.641,-1.113 1.036,-1.617 2.57,-3.273 5.336,-6.394 7.961,-9.621 1.726,-2.125 3.425,-4.269 5.171,-6.379 0.254,-0.308 1.204,-0.992 0.825,-0.863 -0.954,0.316 -8.051,4.269 -8.161,4.32 -2.425,1.094 -4.929,2.02 -7.437,2.914 -0.227,0.082 -0.891,0.176 -0.727,0 2.231,-2.363 4.754,-4.433 7.063,-6.722 19,-18.864 -6.746,4.398 31.184,-26.7 1.503,-1.234 2.855,-2.64 4.261,-3.988 0.395,-0.379 0.758,-1.582 1.137,-1.187 0.383,0.402 -0.664,0.886 -1.035,1.297 -8.328,9.21 -3.239,4.027 -11.613,10.941 -9.426,7.789 -10.458,9.875 -23.368,18.476 -2.968,1.977 -6.375,3.204 -9.59,4.754 -0.226,0.11 -0.902,0.395 -0.726,0.215 17.648,-17.886 15.578,-16.16 34.855,-30.773 7.457,-5.656 14.926,-11.301 22.567,-16.703 8.262,-5.844 16.605,-11.586 25.136,-17.036 1.481,-0.945 4.161,-0.539 5.481,0.325 1.293,0.843 1.406,4.121 1.238,5.074 -0.543,3.113 -1.054,6.309 -2.375,9.18 -0.867,1.886 -2.594,3.254 -4.031,4.754 -8.328,9.035 -17.375,17.378 -25.879,26.25 -1.934,2.019 -3.883,4.035 -5.672,6.179 -1.406,1.68 -5.812,6.313 -3.855,5.321 17.488,-8.883 33.191,-22.586 48.414,-34.262 4.222,-3.235 8.316,-6.637 12.476,-9.953 1.067,-0.848 2.133,-1.7 3.203,-2.539 0.102,-0.079 0.418,-0.282 0.313,-0.219 -10.309,6.219 -4.766,3.574 -24.73,17.793 -21.727,15.476 -44.719,29.367 -65.309,46.347 -0.57,0.473 1.289,-0.738 1.863,-1.199 5.039,-4.066 -1.035,0.364 6.715,-5.402 0.336,-0.25 1.5,-0.734 1.133,-0.539 -7.063,3.691 -14.856,5.68 -22.649,7.082 -2.652,0.476 -28.242,6.305 -35.617,3.531 -2.101,-0.789 -4.14,-1.84 -5.89,-3.238 C 6.316,78.836 6.879,66.695 7.242,60.508 7.602,54.367 8.59,47.531 7.965,41.281 7.711,38.727 7.648,40.602 7.348,38.266 c -0.094,-0.719 15.187,5.484 15.586,5.629 8.793,3.187 17.738,5.96 26.445,9.363 7.738,3.023 15.242,6.597 22.863,9.898 8.961,3.778 17.817,7.817 26.883,11.328 8.117,3.145 16.418,5.793 24.652,8.621 6.246,2.149 7.407,1.934 14.688,4.868 3.07,1.238 5.953,2.894 8.988,4.211 6.695,2.906 13.969,5.043 21.281,4.863 0.407,-0.012 -0.722,0.363 -1.07,0.57" /></g></g></g></svg>
