<?xml version="1.0" encoding="UTF-8" standalone="no"?>
<svg
   xmlns:dc="http://purl.org/dc/elements/1.1/"
   xmlns:cc="http://creativecommons.org/ns#"
   xmlns:rdf="http://www.w3.org/1999/02/22-rdf-syntax-ns#"
   xmlns:svg="http://www.w3.org/2000/svg"
   xmlns="http://www.w3.org/2000/svg"
   xmlns:sodipodi="http://sodipodi.sourceforge.net/DTD/sodipodi-0.dtd"
   xmlns:inkscape="http://www.inkscape.org/namespaces/inkscape"
   inkscape:version="1.0 (4035a4fb49, 2020-05-01)"
   sodipodi:docname="signature1.svg"
   viewBox="0 0 234.92613 144.59853"
   height="144.59853"
   width="234.92613"
   xml:space="preserve"
   id="svg2"
   version="1.1"><metadata
     id="metadata8"><rdf:RDF><cc:Work
         rdf:about=""><dc:format>image/svg+xml</dc:format><dc:type
           rdf:resource="http://purl.org/dc/dcmitype/StillImage" /><dc:title></dc:title></cc:Work></rdf:RDF></metadata><defs
     id="defs6" /><sodipodi:namedview
     inkscape:current-layer="g10"
     inkscape:window-maximized="0"
     inkscape:window-y="0"
     inkscape:window-x="0"
     inkscape:cy="72.299263"
     inkscape:cx="117.46307"
     inkscape:zoom="4.7026759"
     showgrid="false"
     id="namedview4"
     inkscape:window-height="919"
     inkscape:window-width="1827"
     inkscape:pageshadow="2"
     inkscape:pageopacity="0"
     guidetolerance="10"
     gridtolerance="10"
     objecttolerance="10"
     borderopacity="1"
     bordercolor="#666666"
     pagecolor="#ffffff" /><g
     transform="matrix(1.3333333,0,0,1.3333333,0,2.9482966e-6)"
     inkscape:label="signature1"
     inkscape:groupmode="layer"
     id="g10"><g
       id="g12"><g
         id="g14"><path
           id="path16"
           style="fill:none;stroke:#000000;stroke-width:5.66929;stroke-linecap:butt;stroke-linejoin:miter;stroke-miterlimit:4;stroke-dasharray:none;stroke-opacity:1"
           d="m 55.527,44.922 c -9,-0.18 -17.984,-0.309 -26.98,0.164 -5.852,0.309 -11.832,1.293 -17.43,2.976 -9.289,2.793 -11.988,9.661 -1.73,16.032 11.144,6.922 21.011,6.672 32.664,10.25 1.66,0.508 2.207,0.734 1.414,3.304 -2.301,7.446 -20.531,21.196 -26.934,24.356 -1.554,0.769 -3.238,1.23 -4.867,1.82 -0.203,0.074 -0.547,0.364 -0.629,0.164 -0.433,-1.062 1.25,-3.082 1.567,-3.461 5.16,-6.238 10.625,-12.277 16.332,-18.019 0.152,-0.153 2.714,-3.141 3.597,-2.629 0.16,0.094 -0.277,0.25 -0.437,0.344 -1.289,0.757 -2.594,1.484 -3.899,2.211 -2.527,1.402 -19.812,11.132 -20.726,8.757 -0.657,-1.699 1.679,-3.304 2.965,-4.597 5.461,-5.492 9.449,-9.18 15.074,-13.387 2.531,-1.895 3.922,-2.539 3.613,-2.645 -0.75,-0.261 -10.957,3.872 -12.094,4.297 -1.261,0.477 -4.347,0.27 -3.765,1.489 0.515,1.09 6.984,-0.297 10.676,-0.66 19.316,-1.918 38.855,-4.083 58.296,-4.086 2.254,0 4.504,0.179 6.754,0.332 0.215,0.011 0.551,-0.039 0.629,0.164 1.442,3.726 -12.996,19.992 -15.703,22.613 -1.801,1.742 -3.75,3.328 -5.656,4.957 -0.16,0.137 -2.348,1.184 -1.305,0.578 C 76.438,94.75 86.164,89.641 95.703,84.23 95.711,84.227 120.191,73.395 122.75,66.34 126.102,57.098 117.012,54.777 110,52.773 100.152,49.961 90.125,47.812 80.242,45.129 75.578,43.863 70.793,42.867 66.371,40.93 52.375,34.797 57.688,35.859 49.176,28.824 39.086,20.484 37.27,19.004 27.82,13.453 27.367,13.188 14.863,6.535 15.414,5.684 c 0.449,-0.692 1.211,-1.219 2,-1.457 11.867,-3.579 28.121,0.933 38.785,3.011 12.266,2.391 25.102,6.45 36.406,11.379 3.235,1.41 5.965,3.766 8.915,5.695 18.203,11.915 34.925,30.586 49.285,46.833 6.398,7.238 11.656,15.281 16.488,23.636 0.91,1.571 5.414,11.399 6.035,10.809 0.215,-0.207 -0.594,-0.059 -0.89,-0.086 -1.266,-0.121 -2.524,-0.305 -3.79,-0.442 -2.144,-0.234 -4.281,-0.66 -6.437,-0.664" /></g></g></g></svg>
