<?xml version="1.0" encoding="UTF-8" standalone="no"?>
<svg
   xmlns:dc="http://purl.org/dc/elements/1.1/"
   xmlns:cc="http://creativecommons.org/ns#"
   xmlns:rdf="http://www.w3.org/1999/02/22-rdf-syntax-ns#"
   xmlns:svg="http://www.w3.org/2000/svg"
   xmlns="http://www.w3.org/2000/svg"
   xmlns:sodipodi="http://sodipodi.sourceforge.net/DTD/sodipodi-0.dtd"
   xmlns:inkscape="http://www.inkscape.org/namespaces/inkscape"
   sodipodi:docname="University1_Logo.svg"
   inkscape:version="1.0 (4035a4fb49, 2020-05-01)"
   id="svg8"
   version="1.1"
   viewBox="0 0 110.06699 27.922252"
   height="27.922253mm"
   width="110.06699mm">
  <defs
     id="defs2" />
  <sodipodi:namedview
     inkscape:window-maximized="1"
     inkscape:window-y="0"
     inkscape:window-x="0"
     inkscape:window-height="1023"
     inkscape:window-width="1920"
     fit-margin-bottom="0"
     fit-margin-right="0"
     fit-margin-left="0"
     fit-margin-top="0"
     inkscape:guide-bbox="true"
     showguides="true"
     showgrid="false"
     inkscape:document-rotation="0"
     inkscape:current-layer="text884"
     inkscape:document-units="mm"
     inkscape:cy="50.314676"
     inkscape:cx="344.56739"
     inkscape:zoom="1.3497283"
     inkscape:pageshadow="2"
     inkscape:pageopacity="0.0"
     borderopacity="1.0"
     bordercolor="#666666"
     pagecolor="#ffffff"
     id="base">
    <sodipodi:guide
       id="guide837"
       orientation="0,-1"
       position="24.930568,17.950007" />
    <sodipodi:guide
       id="guide859"
       orientation="0,-1"
       position="18.86851,7.4502176" />
  </sodipodi:namedview>
  <metadata
     id="metadata5">
    <rdf:RDF>
      <cc:Work
         rdf:about="">
        <dc:format>image/svg+xml</dc:format>
        <dc:type
           rdf:resource="http://purl.org/dc/dcmitype/StillImage" />
        <dc:title></dc:title>
      </cc:Work>
    </rdf:RDF>
  </metadata>
  <g
     transform="translate(-13.833212,-30.192636)"
     id="layer1"
     inkscape:groupmode="layer"
     inkscape:label="Layer 1">
    <g
       style="font-size:7.06907px;line-height:1;font-family:'Open Sans';-inkscape-font-specification:'Open Sans';letter-spacing:0px;word-spacing:0px;writing-mode:lr-tb;stroke-width:0.264583"
       id="text884"
       aria-label="Company1">
      <g
         id="g869"
         transform="translate(-0.31287906,-17.445822)">
        <path
           style="font-size:7.06907px;line-height:1;font-family:'Open Sans';-inkscape-font-specification:'Open Sans';letter-spacing:0px;word-spacing:0px;writing-mode:lr-tb;fill:#00a6d6;fill-opacity:1;stroke-width:0.070004"
           d="m 44.062774,53.621811 v 0.997223 a 0.4986114,0.4986114 0 0 1 -0.49861,0.498612 h -1.495833 v 0.747916 c 0,0.413037 -0.334881,0.747918 -0.747917,0.747918 h -24.43196 c -0.413038,0 -0.747917,-0.334881 -0.747917,-0.747918 v -0.747916 h -1.495835 a 0.4986114,0.4986114 0 0 1 -0.498611,-0.498612 v -0.997223 a 0.4986114,0.4986114 0 0 1 0.307955,-0.460716 l 14.459731,-5.484726 a 0.49836209,0.49836209 0 0 1 0.381313,0 l 14.45973,5.484726 a 0.4986114,0.4986114 0 0 1 0.307954,0.460716 z M 42.56694,72.569043 H 15.641926 c -0.826137,0 -1.495835,0.669699 -1.495835,1.495834 v 0.997224 a 0.4986114,0.4986114 0 0 0 0.498611,0.49861 h 28.919462 a 0.4986114,0.4986114 0 0 0 0.49861,-0.49861 v -0.997224 c 0,-0.826135 -0.669697,-1.495834 -1.495834,-1.495834 z M 19.132206,57.610702 v 11.966672 h -2.243752 c -0.413038,0 -0.747917,0.334883 -0.747917,0.747918 v 1.24653 h 25.927794 v -1.24653 c 0,-0.413035 -0.334881,-0.747918 -0.747917,-0.747918 H 39.07666 V 57.610702 h -3.988891 v 11.966672 h -3.98889 V 57.610702 H 27.109987 V 69.577374 H 23.121096 V 57.610702 Z"
           id="path2" />
        <text
           id="text886"
           y="67.065964"
           x="47.801044"
           style="font-size:13.116px;line-height:1;font-family:'Open Sans';-inkscape-font-specification:'Open Sans';letter-spacing:0px;word-spacing:0px;writing-mode:lr-tb;fill:#000000;fill-opacity:1;stroke-width:0.070004"
           xml:space="preserve"><tspan
             style="font-style:normal;font-variant:normal;font-weight:800;font-stretch:normal;font-family:'Open Sans';-inkscape-font-specification:'Open Sans Ultra-Bold';fill:#000000;fill-opacity:1;stroke-width:0.070004"
             y="67.065964"
             x="47.801044"
             id="tspan884"
             sodipodi:role="line">University</tspan></text>
        <text
           xml:space="preserve"
           style="font-size:13.116px;line-height:1;font-family:'Open Sans';-inkscape-font-specification:'Open Sans';letter-spacing:0px;word-spacing:0px;writing-mode:lr-tb;fill:#00a6d6;fill-opacity:1;stroke-width:0.070004"
           x="118.18024"
           y="67.065964"
           id="text886-6"><tspan
             sodipodi:role="line"
             id="tspan884-2"
             x="118.18024"
             y="67.065964"
             style="font-style:normal;font-variant:normal;font-weight:800;font-stretch:normal;font-family:'Open Sans';-inkscape-font-specification:'Open Sans Ultra-Bold';fill:#00a6d6;fill-opacity:1;stroke-width:0.070004">1</tspan></text>
      </g>
    </g>
  </g>
</svg>
