<?xml version="1.0" encoding="UTF-8" standalone="no"?>
<svg
   xmlns:dc="http://purl.org/dc/elements/1.1/"
   xmlns:cc="http://creativecommons.org/ns#"
   xmlns:rdf="http://www.w3.org/1999/02/22-rdf-syntax-ns#"
   xmlns:svg="http://www.w3.org/2000/svg"
   xmlns="http://www.w3.org/2000/svg"
   xmlns:sodipodi="http://sodipodi.sourceforge.net/DTD/sodipodi-0.dtd"
   xmlns:inkscape="http://www.inkscape.org/namespaces/inkscape"
   sodipodi:docname="dummy_logos.svg"
   inkscape:version="1.0 (4035a4fb49, 2020-05-01)"
   id="svg8"
   version="1.1"
   viewBox="0 0 210 297"
   height="297mm"
   width="210mm">
  <defs
     id="defs2" />
  <sodipodi:namedview
     inkscape:window-maximized="1"
     inkscape:window-y="0"
     inkscape:window-x="0"
     inkscape:window-height="1023"
     inkscape:window-width="1920"
     inkscape:guide-bbox="true"
     showguides="true"
     showgrid="false"
     inkscape:document-rotation="0"
     inkscape:current-layer="g864"
     inkscape:document-units="mm"
     inkscape:cy="956.26337"
     inkscape:cx="125.7003"
     inkscape:zoom="0.5947256"
     inkscape:pageshadow="2"
     inkscape:pageopacity="0.0"
     borderopacity="1.0"
     bordercolor="#666666"
     pagecolor="#ffffff"
     id="base">
    <sodipodi:guide
       id="guide847"
       orientation="1,0"
       position="14.050374,256.94596" />
    <sodipodi:guide
       id="guide1072"
       orientation="1,0"
       position="47.470265,23.06781" />
    <sodipodi:guide
       id="guide1089"
       orientation="1,0"
       position="48.881735,31.93916" />
    <sodipodi:guide
       id="guide1091"
       orientation="1,0"
       position="38.555654,34.242099" />
    <sodipodi:guide
       id="guide1093"
       orientation="1,0"
       position="57.845862,38.402247" />
    <sodipodi:guide
       id="guide1095"
       orientation="0,-1"
       position="157.60052,41.508482" />
    <sodipodi:guide
       id="guide1162"
       orientation="1,0"
       position="11.954033,34.561791" />
    <sodipodi:guide
       id="guide1164"
       orientation="1,0"
       position="50.916619,43.581075" />
  </sodipodi:namedview>
  <metadata
     id="metadata5">
    <rdf:RDF>
      <cc:Work
         rdf:about="">
        <dc:format>image/svg+xml</dc:format>
        <dc:type
           rdf:resource="http://purl.org/dc/dcmitype/StillImage" />
        <dc:title></dc:title>
      </cc:Work>
    </rdf:RDF>
  </metadata>
  <g
     id="layer1"
     inkscape:groupmode="layer"
     inkscape:label="Layer 1">
    <g
       id="g864">
      <path
         d="m 39.438096,20.914873 -6.062058,10.499793 -12.124116,0 -6.062058,-10.499793 6.062058,-10.499792 12.124116,0 z"
         inkscape:randomized="0"
         inkscape:rounded="0"
         inkscape:flatsided="true"
         sodipodi:arg2="0.52359878"
         sodipodi:arg1="3.9695617e-14"
         sodipodi:r2="10.499793"
         sodipodi:r1="12.124116"
         sodipodi:cy="20.914873"
         sodipodi:cx="27.31398"
         sodipodi:sides="6"
         id="path857"
         style="fill:#fbb03b;fill-opacity:1;stroke:#000000;stroke-width:2.4565;stroke-linecap:round;stroke-miterlimit:4;stroke-dasharray:none;stroke-opacity:1"
         sodipodi:type="star"
         transform="matrix(0.61620563,0,0,0.6050951,5.6502695,6.9627877)" />
      <path
         sodipodi:type="star"
         style="fill:#fbb03b;fill-opacity:1;stroke:#000000;stroke-width:2.4565;stroke-linecap:round;stroke-miterlimit:4;stroke-dasharray:none;stroke-opacity:1"
         id="path857-3"
         sodipodi:sides="6"
         sodipodi:cx="27.31398"
         sodipodi:cy="41.914459"
         sodipodi:r1="12.124116"
         sodipodi:r2="10.499793"
         sodipodi:arg1="3.9695617e-14"
         sodipodi:arg2="0.52359878"
         inkscape:flatsided="true"
         inkscape:rounded="0"
         inkscape:randomized="0"
         d="m 39.438096,41.914459 -6.062058,10.499793 -12.124116,0 -6.062058,-10.499793 6.062058,-10.499792 12.124116,0 z"
         transform="matrix(0.61620563,0,0,0.6050951,5.6502695,6.9627877)" />
      <path
         sodipodi:type="star"
         style="fill:#fbb03b;fill-opacity:1;stroke:#000000;stroke-width:2.4565;stroke-linecap:round;stroke-miterlimit:4;stroke-dasharray:none;stroke-opacity:1"
         id="path857-6"
         sodipodi:sides="6"
         sodipodi:cx="45.500156"
         sodipodi:cy="31.414667"
         sodipodi:r1="12.124116"
         sodipodi:r2="10.499793"
         sodipodi:arg1="3.9695617e-14"
         sodipodi:arg2="0.52359878"
         inkscape:flatsided="true"
         inkscape:rounded="0"
         inkscape:randomized="0"
         d="m 57.624272,31.414667 -6.062058,10.499793 -12.124116,0 -6.062058,-10.499793 6.062058,-10.499792 12.124116,0 z"
         transform="matrix(0.61620563,0,0,0.6050951,5.6502695,6.9627877)" />
      <text
         xml:space="preserve"
         style="font-size:12.692px;line-height:1;font-family:'Open Sans';-inkscape-font-specification:'Open Sans';letter-spacing:0px;word-spacing:0px;writing-mode:lr-tb;stroke-width:0.070004"
         x="47.018024"
         y="30.12034"
         id="text846"
         transform="scale(1.0093699,0.99071709)"><tspan
           sodipodi:role="line"
           id="tspan844"
           x="47.018024"
           y="30.12034"
           style="font-style:normal;font-variant:normal;font-weight:800;font-stretch:normal;font-family:'Open Sans';-inkscape-font-specification:'Open Sans Ultra-Bold';stroke-width:0.070004">Company</tspan></text>
      <text
         transform="scale(1.0093699,0.99071709)"
         id="text846-3"
         y="30.120338"
         x="108.87992"
         style="font-size:12.692px;line-height:1;font-family:'Open Sans';-inkscape-font-specification:'Open Sans';letter-spacing:0px;word-spacing:0px;writing-mode:lr-tb;stroke-width:0.070004;fill:#fbb03b;fill-opacity:1;"
         xml:space="preserve"><tspan
           style="font-style:normal;font-variant:normal;font-weight:800;font-stretch:normal;font-family:'Open Sans';-inkscape-font-specification:'Open Sans Ultra-Bold';stroke-width:0.070004;fill:#fbb03b;fill-opacity:1;"
           y="30.120338"
           x="108.87992"
           id="tspan844-6"
           sodipodi:role="line">1</tspan></text>
      <text
         transform="scale(1.0093699,0.99071709)"
         id="text846-8"
         y="160.48114"
         x="48.161766"
         style="font-size:12.692px;line-height:1;font-family:'Open Sans';-inkscape-font-specification:'Open Sans';letter-spacing:0px;word-spacing:0px;writing-mode:lr-tb;stroke-width:0.070004"
         xml:space="preserve"><tspan
           style="font-style:normal;font-variant:normal;font-weight:bold;font-stretch:normal;font-family:Oswald;-inkscape-font-specification:'Oswald Bold';stroke-width:0.070004"
           y="160.48114"
           x="48.161766"
           id="tspan844-7"
           sodipodi:role="line">Association</tspan></text>
      <text
         id="text846-1"
         y="272.67172"
         x="74.012108"
         style="font-size:12.0359px;line-height:1;font-family:'Open Sans';-inkscape-font-specification:'Open Sans';letter-spacing:0px;word-spacing:0px;writing-mode:lr-tb;stroke-width:0.0700041"
         xml:space="preserve"><tspan
           style="font-style:normal;font-variant:normal;font-weight:bold;font-stretch:normal;font-family:Oswald;-inkscape-font-specification:'Oswald Bold';stroke-width:0.0700041"
           y="272.67172"
           x="74.012108"
           id="tspan844-0"
           sodipodi:role="line">Company</tspan></text>
      <g
         style="font-size:7.06907px;line-height:1;font-family:'Open Sans';-inkscape-font-specification:'Open Sans';letter-spacing:0px;word-spacing:0px;writing-mode:lr-tb;stroke-width:0.544363"
         transform="matrix(0.12859828,0,0,0.12859828,81.949464,228.09886)"
         id="g6">
        <path
           style="stroke-width:1.06946"
           d="m 245.23538,153.52383 c 14.01149,-14.01149 14.01104,-36.81082 -4.5e-4,-50.82276 -6.78716,-6.787605 -15.81206,-10.525295 -25.41116,-10.525295 -2.27921,0 -4.52326,0.207774 -6.71188,0.617464 9.53825,-6.524394 15.71921,-17.495436 15.71921,-29.694648 0,-19.815661 -16.12124,-35.936901 -35.9369,-35.936901 -12.22355,0 -23.21352,6.205747 -29.73296,15.776 2.15707,-11.377127 -1.22637,-23.536676 -9.86952,-32.179831 -6.78716,-6.7876055 -15.81206,-10.52574632 -25.41116,-10.52574632 -9.5991,0 -18.624,3.73814082 -25.41115,10.52574632 C 93.825803,19.401014 90.442817,31.561014 92.599887,42.938141 86.080451,33.367887 75.090028,27.16169 62.866479,27.16169 c -19.815662,0 -35.936902,16.12124 -35.936902,35.936901 0,12.199663 6.180507,23.170254 15.718761,29.694198 -2.18862,-0.40924 -4.431775,-0.617014 -6.711437,-0.617014 -9.599098,0 -18.623549,3.738141 -25.411154,10.525745 C 3.7381409,109.48913 0,118.51403 0,128.11268 c 0,9.59909 3.7381409,18.62354 10.525747,25.4116 6.787605,6.78716 15.812506,10.5253 25.411154,10.5253 2.279212,0 4.522367,-0.20778 6.711437,-0.61747 -9.538254,6.5244 -15.718761,17.49544 -15.718761,29.69465 0,19.81566 16.12124,35.93645 35.936902,35.93645 12.223549,0 23.214422,-6.20575 29.733408,-15.776 -2.15707,11.37758 1.226367,23.53758 9.869523,32.18073 6.7876,6.78716 15.8125,10.5253 25.41115,10.5253 9.5991,0 18.624,-3.73814 25.41116,-10.52575 8.64315,-8.64315 12.02614,-20.8036 9.86907,-32.18073 6.51943,9.57025 17.50986,15.77645 29.73341,15.77645 19.81566,0 35.9369,-16.12079 35.9369,-35.93645 0,-12.19921 -6.18096,-23.17025 -15.71876,-29.69465 2.18862,0.40969 4.43222,0.61747 6.71143,0.61747 9.5991,0 18.624,-3.73814 25.41161,-10.52575"
           fill="#000000"
           id="path2-7" />
        <path
           style="stroke-width:1.06946"
           d="m 234.39144,113.53825 c -8.04913,-8.04867 -21.09927,-8.04867 -29.1484,0 h -42.18411 l 29.82896,-29.828504 c 11.38298,0 20.6107,-9.227718 20.6107,-20.611155 0,-11.382985 -9.22772,-20.611154 -20.6107,-20.611154 -11.38344,0 -20.61116,9.228169 -20.61116,20.611154 L 142.44822,92.927549 V 50.743437 c 8.04868,-8.049127 8.04868,-21.099268 -4.5e-4,-29.148395 -8.04912,-8.049126 -21.09926,-8.049126 -29.14839,0 -8.04913,8.049127 -8.04913,21.099268 0,29.148395 V 92.927549 L 83.470873,63.098591 c 0,-11.382985 -9.227718,-20.611154 -20.611155,-20.611154 -11.382986,0 -20.611155,9.228169 -20.611155,20.611154 0,11.383437 9.228169,20.611155 20.611155,20.611155 L 92.688225,113.53825 H 50.504563 c -8.049577,-8.04912 -21.099718,-8.04867 -29.148845,4.5e-4 -8.049126,8.04913 -8.049126,21.09927 0,29.1484 8.049127,8.04912 21.099719,8.04912 29.148845,0 h 42.183662 l -29.828507,29.82851 c -11.382986,0 -20.611155,9.22771 -20.611155,20.61115 0,11.38299 9.228169,20.61115 20.611155,20.61115 11.383437,0 20.611155,-9.22816 20.611155,-20.61115 l 29.828507,-29.82851 v 42.18366 c -8.04913,8.04913 -8.04913,21.09972 0,29.14885 8.04913,8.04913 21.09972,8.04913 29.14884,0 8.04868,-8.04913 8.04868,-21.09972 0,-29.14885 v -42.18366 l 29.82851,29.82851 c 0,11.38299 9.22772,20.61115 20.61116,20.61115 11.38298,0 20.6107,-9.22816 20.6107,-20.61115 0,-11.38344 -9.22772,-20.61115 -20.6107,-20.61115 L 163.05893,142.6871 h 42.18411 c 8.04913,8.04912 21.09927,8.04912 29.1484,0 8.04912,-8.04913 8.04912,-21.09972 0,-29.14885"
           fill="#ffb13b"
           id="path4" />
      </g>
      <text
         xml:space="preserve"
         style="font-size:12.0359px;line-height:1;font-family:'Open Sans';-inkscape-font-specification:'Open Sans';letter-spacing:0px;word-spacing:0px;writing-mode:lr-tb;fill:#ffb13b;fill-opacity:1;stroke-width:0.070004"
         x="118.99131"
         y="272.67172"
         id="text846-1-2"><tspan
           sodipodi:role="line"
           id="tspan844-0-0"
           x="118.99131"
           y="272.67172"
           style="font-style:normal;font-variant:normal;font-weight:bold;font-stretch:normal;font-family:Oswald;-inkscape-font-specification:'Oswald Bold';fill:#ffb13b;fill-opacity:1;stroke-width:0.070004">2</tspan></text>
      <g
         style="stroke-width:0.787299"
         transform="matrix(1.2701659,0,0,1.2701659,-34.964838,-139.8758)"
         id="g1100">
        <path
           style="fill:#1c78c0;fill-opacity:1;stroke:none;stroke-width:0.208306px;stroke-linecap:butt;stroke-linejoin:miter;stroke-opacity:1"
           d="m 38.866786,255.51321 9.290243,-5.12237 9.279944,5.13749 -9.284553,5.37051 z"
           id="path1055"
           sodipodi:nodetypes="ccccc" />
        <path
           sodipodi:nodetypes="ccccc"
           id="path1055-2"
           d="m 38.542645,256.73451 8.9625,5.67635 -0.03488,10.60707 -8.914611,-5.45145 z"
           style="fill:#1c78c0;fill-opacity:1;stroke:none;stroke-width:0.208306px;stroke-linecap:butt;stroke-linejoin:miter;stroke-opacity:1" />
        <path
           style="fill:#1c78c0;fill-opacity:1;stroke:none;stroke-width:0.208306px;stroke-linecap:butt;stroke-linejoin:miter;stroke-opacity:1"
           d="m 57.88259,256.7327 -9.000855,5.64692 -3e-6,10.59613 8.96413,-5.39349 z"
           id="path1055-2-9"
           sodipodi:nodetypes="ccccc" />
      </g>
      <text
         transform="scale(1.0093699,0.99071709)"
         id="text846-0"
         y="198.4326"
         x="46.062786"
         style="font-size:12.692px;line-height:1;font-family:'Open Sans';-inkscape-font-specification:'Open Sans';letter-spacing:0px;word-spacing:0px;writing-mode:lr-tb;stroke-width:0.070004"
         xml:space="preserve"><tspan
           style="font-style:normal;font-variant:normal;font-weight:800;font-stretch:normal;font-family:'Open Sans';-inkscape-font-specification:'Open Sans Ultra-Bold';stroke-width:0.070004"
           y="198.4326"
           x="46.062786"
           id="tspan844-2"
           sodipodi:role="line">Company</tspan></text>
      <text
         xml:space="preserve"
         style="font-size:12.692px;line-height:1;font-family:'Open Sans';-inkscape-font-specification:'Open Sans';letter-spacing:0px;word-spacing:0px;writing-mode:lr-tb;fill:#1c78c0;fill-opacity:1;stroke-width:0.070004"
         x="107.92468"
         y="198.4326"
         id="text846-3-8"
         transform="scale(1.0093699,0.99071709)"><tspan
           sodipodi:role="line"
           id="tspan844-6-3"
           x="107.92468"
           y="198.4326"
           style="font-style:normal;font-variant:normal;font-weight:800;font-stretch:normal;font-family:'Open Sans';-inkscape-font-specification:'Open Sans Ultra-Bold';fill:#1c78c0;fill-opacity:1;stroke-width:0.070004">3</tspan></text>
      <g
         style="stroke-width:6.83643;stroke-miterlimit:4;stroke-dasharray:none"
         transform="matrix(0.07313756,0,0,0.07313756,13.152859,221.33119)"
         id="g50">
        <path
           style="fill:#1ac4ff;stroke-width:6.83644;stroke-miterlimit:4;stroke-dasharray:none"
           d="m -7.8988656,440.1812 c -2.4000004,0 -4.0000004,-0.8 -5.6000004,-2.4 -2.4,-2.4 -3.2,-6.4 -1.6,-9.6 l 243.999996,-414.4 c 1.6,-3.2 5.6,-4.8000005 8.8,-4.0000005 3.2,0.8000005 5.6,4.0000005 5.6,8.0000005 v 274.4 c 0,3.2 -1.6,5.6 -4,7.2 l -243.1999956,140 c -1.6,0.8 -2.4,0.8 -4,0.8 z m 235.9999956,-393.6 -214.399996,364 214.399996,-123.2 z"
           id="path44" />
        <path
           style="fill:#1ac4ff;stroke-width:6.83644;stroke-miterlimit:4;stroke-dasharray:none"
           d="m 511.53881,440.33129 c -1.6,0 -2.4,0 -4,-0.8 l -244,-140.8 c -2.4,-1.6 -4,-4 -4,-7.2 V 17.931289 c 0,-3.2 2.4,-6.4 5.6,-7.9999998 3.2,-0.8 7.2,0.7999998 8.8,3.9999998 l 244,415.200001 c 1.6,3.2 1.6,7.2 -1.6,9.6 -0.8,0.8 -3.2,1.6 -4.8,1.6 z m -236,-152.8 213.6,123.2 -213.6,-364.000001 z"
           id="path46" />
        <path
           style="fill:#1ac4ff;stroke-width:6.83644;stroke-miterlimit:4;stroke-dasharray:none"
           d="m 496.509,467.557 v 0 h -488 c -3.2,0 -6.4,-2.4 -8,-5.6 -1.6,-3.2 0.8,-7.2 4,-8.8 l 244,-140.8 c 2.4,-1.6 5.6,-1.6 8,0 l 243.2,140 c 3.2,0.8 4.8,4 4.8,7.2 0,4.8 -3.2,8 -8,8 z m -458.4,-15.2 h 428.8 l -214.4,-124 z"
           id="path48" />
      </g>
      <text
         xml:space="preserve"
         style="font-size:7.22633px;line-height:1;font-family:'Open Sans';-inkscape-font-specification:'Open Sans';letter-spacing:0px;word-spacing:0px;writing-mode:lr-tb;stroke-width:0.0700041"
         x="11.511631"
         y="265.19849"
         id="text846-0-0"
         transform="scale(1.0093699,0.99071709)"><tspan
           sodipodi:role="line"
           id="tspan844-2-9"
           x="11.511631"
           y="265.19849"
           style="font-style:normal;font-variant:normal;font-weight:800;font-stretch:normal;font-family:'Open Sans';-inkscape-font-specification:'Open Sans Ultra-Bold';stroke-width:0.0700041">Company</tspan></text>
      <text
         transform="scale(1.0093699,0.99071709)"
         id="text846-3-8-1"
         y="265.19849"
         x="46.733391"
         style="font-size:7.22633px;line-height:1;font-family:'Open Sans';-inkscape-font-specification:'Open Sans';letter-spacing:0px;word-spacing:0px;writing-mode:lr-tb;fill:#1ac4ff;fill-opacity:1;stroke-width:0.0700041"
         xml:space="preserve"><tspan
           style="font-style:normal;font-variant:normal;font-weight:800;font-stretch:normal;font-family:'Open Sans';-inkscape-font-specification:'Open Sans Ultra-Bold';fill:#000000;fill-opacity:1;stroke-width:0.0700041"
           y="265.19849"
           x="46.733391"
           id="tspan844-6-3-9"
           sodipodi:role="line">4</tspan></text>
    </g>
    <g
       transform="translate(0,7.4083337)"
       id="g869">
      <path
         id="path2"
         d="m 44.062774,53.621811 v 0.997223 a 0.4986114,0.4986114 0 0 1 -0.49861,0.498612 h -1.495833 v 0.747916 c 0,0.413037 -0.334881,0.747918 -0.747917,0.747918 h -24.43196 c -0.413038,0 -0.747917,-0.334881 -0.747917,-0.747918 v -0.747916 h -1.495835 a 0.4986114,0.4986114 0 0 1 -0.498611,-0.498612 v -0.997223 a 0.4986114,0.4986114 0 0 1 0.307955,-0.460716 l 14.459731,-5.484726 a 0.49836209,0.49836209 0 0 1 0.381313,0 l 14.45973,5.484726 a 0.4986114,0.4986114 0 0 1 0.307954,0.460716 z M 42.56694,72.569043 H 15.641926 c -0.826137,0 -1.495835,0.669699 -1.495835,1.495834 v 0.997224 a 0.4986114,0.4986114 0 0 0 0.498611,0.49861 h 28.919462 a 0.4986114,0.4986114 0 0 0 0.49861,-0.49861 v -0.997224 c 0,-0.826135 -0.669697,-1.495834 -1.495834,-1.495834 z M 19.132206,57.610702 v 11.966672 h -2.243752 c -0.413038,0 -0.747917,0.334883 -0.747917,0.747918 v 1.24653 h 25.927794 v -1.24653 c 0,-0.413035 -0.334881,-0.747918 -0.747917,-0.747918 H 39.07666 V 57.610702 h -3.988891 v 11.966672 h -3.98889 V 57.610702 H 27.109987 V 69.577374 H 23.121096 V 57.610702 Z"
         style="font-size:7.06907px;line-height:1;font-family:'Open Sans';-inkscape-font-specification:'Open Sans';letter-spacing:0px;word-spacing:0px;writing-mode:lr-tb;fill:#00a6d6;fill-opacity:1;stroke-width:0.070004" />
      <text
         xml:space="preserve"
         style="font-size:13.116px;line-height:1;font-family:'Open Sans';-inkscape-font-specification:'Open Sans';letter-spacing:0px;word-spacing:0px;writing-mode:lr-tb;fill:#000000;fill-opacity:1;stroke-width:0.070004"
         x="47.801044"
         y="67.065964"
         id="text886"><tspan
           sodipodi:role="line"
           id="tspan884"
           x="47.801044"
           y="67.065964"
           style="font-style:normal;font-variant:normal;font-weight:800;font-stretch:normal;font-family:'Open Sans';-inkscape-font-specification:'Open Sans Ultra-Bold';fill:#000000;fill-opacity:1;stroke-width:0.070004">University</tspan></text>
      <text
         id="text886-6"
         y="67.065964"
         x="118.18024"
         style="font-size:13.116px;line-height:1;font-family:'Open Sans';-inkscape-font-specification:'Open Sans';letter-spacing:0px;word-spacing:0px;writing-mode:lr-tb;fill:#00a6d6;fill-opacity:1;stroke-width:0.070004"
         xml:space="preserve"><tspan
           style="font-style:normal;font-variant:normal;font-weight:800;font-stretch:normal;font-family:'Open Sans';-inkscape-font-specification:'Open Sans Ultra-Bold';fill:#00a6d6;fill-opacity:1;stroke-width:0.070004"
           y="67.065964"
           x="118.18024"
           id="tspan884-2"
           sodipodi:role="line">1</tspan></text>
    </g>
    <path
       id="path2-3"
       d="m 45.006957,101.61954 v 1.02131 a 0.51065689,0.51065689 0 0 1 -0.510655,0.51066 h -1.53197 v 0.76598 c 0,0.42302 -0.342971,0.76599 -0.765985,0.76599 H 17.176158 c -0.423016,0 -0.765985,-0.34297 -0.765985,-0.76599 v -0.76598 h -1.531971 a 0.51065689,0.51065689 0 0 1 -0.510657,-0.51066 v -1.02131 a 0.51065689,0.51065689 0 0 1 0.315395,-0.47185 l 14.809049,-5.617226 a 0.51040156,0.51040156 0 0 1 0.390525,0 l 14.80905,5.617226 a 0.51065689,0.51065689 0 0 1 0.315393,0.47185 z m -1.531971,19.40496 h -27.57547 c -0.846094,0 -1.531971,0.68587 -1.531971,1.53197 v 1.02131 a 0.51065689,0.51065689 0 0 0 0.510657,0.51066 h 29.6181 a 0.51065689,0.51065689 0 0 0 0.510655,-0.51066 v -1.02131 c 0,-0.8461 -0.685876,-1.53197 -1.531971,-1.53197 z M 19.474115,105.70479 v 12.25577 h -2.297957 c -0.423016,0 -0.765985,0.34297 -0.765985,0.76598 v 1.27664 h 26.554159 v -1.27664 c 0,-0.42301 -0.342971,-0.76598 -0.765985,-0.76598 h -2.297959 v -12.25577 h -4.085255 v 12.25577 h -4.085254 v -12.25577 h -4.085255 v 12.25577 h -4.085255 v -12.25577 z"
       style="font-size:7.06907px;line-height:1;font-family:'Open Sans';-inkscape-font-specification:'Open Sans';letter-spacing:0px;word-spacing:0px;writing-mode:lr-tb;fill:#c30000;fill-opacity:1;stroke-width:0.0700042" />
    <text
       xml:space="preserve"
       style="font-size:13.2328px;line-height:1;font-family:'Open Sans';-inkscape-font-specification:'Open Sans';letter-spacing:0px;word-spacing:0px;writing-mode:lr-tb;fill:#000000;fill-opacity:1;stroke-width:0.0700042;"
       x="48.850193"
       y="115.23321"
       id="text886-5"><tspan
         sodipodi:role="line"
         id="tspan884-6"
         x="48.850193"
         y="115.23321"
         style="font-style:normal;font-variant:normal;font-weight:800;font-stretch:normal;font-family:'Open Sans';-inkscape-font-specification:'Open Sans Ultra-Bold';fill:#000000;fill-opacity:1;stroke-width:0.0700042;">University</tspan></text>
    <text
       id="text886-5-6"
       y="115.23321"
       x="119.75853"
       style="font-size:13.2328px;line-height:1;font-family:'Open Sans';-inkscape-font-specification:'Open Sans';letter-spacing:0px;word-spacing:0px;writing-mode:lr-tb;fill:#c30000;fill-opacity:1;stroke-width:0.0700042"
       xml:space="preserve"><tspan
         style="font-style:normal;font-variant:normal;font-weight:800;font-stretch:normal;font-family:'Open Sans';-inkscape-font-specification:'Open Sans Ultra-Bold';fill:#c30000;fill-opacity:1;stroke-width:0.0700042"
         y="115.23321"
         x="119.75853"
         id="tspan884-6-1"
         sodipodi:role="line">2</tspan></text>
    <ellipse
       transform="scale(1,-1)"
       id="circle12"
       stroke="#f4c300"
       cy="-149.65353"
       cx="28.637352"
       style="fill:none;stroke-width:2.37705;stroke:#fbb03b;stroke-opacity:1"
       rx="8.0705614"
       ry="8.0609646" />
    <ellipse
       transform="scale(1,-1)"
       id="circle24"
       stroke="#0085c7"
       cy="-158.76895"
       cx="23.229284"
       style="fill:none;stroke-width:2.37705;stroke:#00a6d6;stroke-opacity:1"
       rx="8.0705614"
       ry="8.0609646" />
    <ellipse
       transform="scale(1,-1)"
       id="circle26"
       stroke="#000000"
       cy="-158.82253"
       cx="33.884125"
       style="fill:none;stroke-width:2.37705;stroke:#c30000;stroke-opacity:1"
       rx="8.0705614"
       ry="8.0609646" />
  </g>
</svg>
