<?xml version="1.0" encoding="UTF-8" standalone="no"?>
<svg
   xmlns:dc="http://purl.org/dc/elements/1.1/"
   xmlns:cc="http://creativecommons.org/ns#"
   xmlns:rdf="http://www.w3.org/1999/02/22-rdf-syntax-ns#"
   xmlns:svg="http://www.w3.org/2000/svg"
   xmlns="http://www.w3.org/2000/svg"
   xmlns:sodipodi="http://sodipodi.sourceforge.net/DTD/sodipodi-0.dtd"
   xmlns:inkscape="http://www.inkscape.org/namespaces/inkscape"
   width="39.347042mm"
   height="42.424915mm"
   viewBox="0 0 39.347042 42.424915"
   version="1.1"
   id="svg8"
   inkscape:version="1.0 (4035a4fb49, 2020-05-01)"
   sodipodi:docname="Company4_Logo.svg">
  <defs
     id="defs2" />
  <sodipodi:namedview
     id="base"
     pagecolor="#ffffff"
     bordercolor="#666666"
     borderopacity="1.0"
     inkscape:pageopacity="0.0"
     inkscape:pageshadow="2"
     inkscape:zoom="1.3497283"
     inkscape:cx="347.45705"
     inkscape:cy="59.947528"
     inkscape:document-units="mm"
     inkscape:current-layer="text884"
     inkscape:document-rotation="0"
     showgrid="false"
     showguides="true"
     inkscape:guide-bbox="true"
     fit-margin-top="0"
     fit-margin-left="0"
     fit-margin-right="0"
     fit-margin-bottom="0"
     inkscape:window-width="1920"
     inkscape:window-height="1023"
     inkscape:window-x="0"
     inkscape:window-y="0"
     inkscape:window-maximized="1">
    <sodipodi:guide
       position="25.695126,29.609939"
       orientation="0,-1"
       id="guide837" />
    <sodipodi:guide
       position="19.633068,19.110149"
       orientation="0,-1"
       id="guide859" />
  </sodipodi:namedview>
  <metadata
     id="metadata5">
    <rdf:RDF>
      <cc:Work
         rdf:about="">
        <dc:format>image/svg+xml</dc:format>
        <dc:type
           rdf:resource="http://purl.org/dc/dcmitype/StillImage" />
        <dc:title></dc:title>
      </cc:Work>
    </rdf:RDF>
  </metadata>
  <g
     inkscape:label="Layer 1"
     inkscape:groupmode="layer"
     id="layer1"
     transform="translate(-13.068656,-27.349903)">
    <g
       aria-label="Company1"
       id="text884"
       style="font-size:7.06907px;line-height:1;font-family:'Open Sans';-inkscape-font-specification:'Open Sans';letter-spacing:0px;word-spacing:0px;writing-mode:lr-tb;stroke-width:0.264583">
      <g
         id="g50"
         transform="matrix(0.07313756,0,0,0.07313756,14.233831,26.64944)"
         style="stroke-width:6.83643;stroke-miterlimit:4;stroke-dasharray:none">
        <path
           id="path44"
           d="m -7.8988656,440.1812 c -2.4000004,0 -4.0000004,-0.8 -5.6000004,-2.4 -2.4,-2.4 -3.2,-6.4 -1.6,-9.6 l 243.999996,-414.4 c 1.6,-3.2 5.6,-4.8000005 8.8,-4.0000005 3.2,0.8000005 5.6,4.0000005 5.6,8.0000005 v 274.4 c 0,3.2 -1.6,5.6 -4,7.2 l -243.1999956,140 c -1.6,0.8 -2.4,0.8 -4,0.8 z m 235.9999956,-393.6 -214.399996,364 214.399996,-123.2 z"
           style="fill:#1ac4ff;stroke-width:6.83644;stroke-miterlimit:4;stroke-dasharray:none" />
        <path
           id="path46"
           d="m 511.53881,440.33129 c -1.6,0 -2.4,0 -4,-0.8 l -244,-140.8 c -2.4,-1.6 -4,-4 -4,-7.2 V 17.931289 c 0,-3.2 2.4,-6.4 5.6,-7.9999998 3.2,-0.8 7.2,0.7999998 8.8,3.9999998 l 244,415.200001 c 1.6,3.2 1.6,7.2 -1.6,9.6 -0.8,0.8 -3.2,1.6 -4.8,1.6 z m -236,-152.8 213.6,123.2 -213.6,-364.000001 z"
           style="fill:#1ac4ff;stroke-width:6.83644;stroke-miterlimit:4;stroke-dasharray:none" />
        <path
           id="path48"
           d="m 496.509,467.557 v 0 h -488 c -3.2,0 -6.4,-2.4 -8,-5.6 -1.6,-3.2 0.8,-7.2 4,-8.8 l 244,-140.8 c 2.4,-1.6 5.6,-1.6 8,0 l 243.2,140 c 3.2,0.8 4.8,4 4.8,7.2 0,4.8 -3.2,8 -8,8 z m -458.4,-15.2 h 428.8 l -214.4,-124 z"
           style="fill:#1ac4ff;stroke-width:6.83644;stroke-miterlimit:4;stroke-dasharray:none" />
      </g>
      <text
         transform="scale(1.0093699,0.99071708)"
         id="text846-0-0"
         y="68.692589"
         x="12.582567"
         style="font-size:7.22633px;line-height:1;font-family:'Open Sans';-inkscape-font-specification:'Open Sans';letter-spacing:0px;word-spacing:0px;writing-mode:lr-tb;stroke-width:0.070004"
         xml:space="preserve"><tspan
           style="font-style:normal;font-variant:normal;font-weight:800;font-stretch:normal;font-family:'Open Sans';-inkscape-font-specification:'Open Sans Ultra-Bold';stroke-width:0.070004"
           y="68.692589"
           x="12.582567"
           id="tspan844-2-9"
           sodipodi:role="line">Company</tspan></text>
      <text
         xml:space="preserve"
         style="font-size:7.22633px;line-height:1;font-family:'Open Sans';-inkscape-font-specification:'Open Sans';letter-spacing:0px;word-spacing:0px;writing-mode:lr-tb;fill:#1ac4ff;fill-opacity:1;stroke-width:0.070004"
         x="47.804333"
         y="68.692589"
         id="text846-3-8-1"
         transform="scale(1.0093699,0.99071708)"><tspan
           sodipodi:role="line"
           id="tspan844-6-3-9"
           x="47.804333"
           y="68.692589"
           style="font-style:normal;font-variant:normal;font-weight:800;font-stretch:normal;font-family:'Open Sans';-inkscape-font-specification:'Open Sans Ultra-Bold';fill:#000000;fill-opacity:1;stroke-width:0.070004">4</tspan></text>
    </g>
  </g>
</svg>
