<?xml version="1.0" encoding="UTF-8" standalone="no"?>
<svg
   xmlns:dc="http://purl.org/dc/elements/1.1/"
   xmlns:cc="http://creativecommons.org/ns#"
   xmlns:rdf="http://www.w3.org/1999/02/22-rdf-syntax-ns#"
   xmlns:svg="http://www.w3.org/2000/svg"
   xmlns="http://www.w3.org/2000/svg"
   xmlns:sodipodi="http://sodipodi.sourceforge.net/DTD/sodipodi-0.dtd"
   xmlns:inkscape="http://www.inkscape.org/namespaces/inkscape"
   width="50.238888mm"
   height="46.829834mm"
   viewBox="0 0 50.238888 46.829834"
   version="1.1"
   id="svg8"
   inkscape:version="1.0 (4035a4fb49, 2020-05-01)"
   sodipodi:docname="Company2_Logo.svg">
  <defs
     id="defs2" />
  <sodipodi:namedview
     id="base"
     pagecolor="#ffffff"
     bordercolor="#666666"
     borderopacity="1.0"
     inkscape:pageopacity="0.0"
     inkscape:pageshadow="2"
     inkscape:zoom="1.3497283"
     inkscape:cx="357.36535"
     inkscape:cy="66.58437"
     inkscape:document-units="mm"
     inkscape:current-layer="text884"
     inkscape:document-rotation="0"
     showgrid="false"
     showguides="true"
     inkscape:guide-bbox="true"
     fit-margin-top="0"
     fit-margin-left="0"
     fit-margin-right="0"
     fit-margin-bottom="0"
     inkscape:window-width="1920"
     inkscape:window-height="1023"
     inkscape:window-x="0"
     inkscape:window-y="0"
     inkscape:window-maximized="1">
    <sodipodi:guide
       position="28.316699,32.25886"
       orientation="0,-1"
       id="guide837" />
    <sodipodi:guide
       position="22.254641,21.75907"
       orientation="0,-1"
       id="guide859" />
  </sodipodi:namedview>
  <metadata
     id="metadata5">
    <rdf:RDF>
      <cc:Work
         rdf:about="">
        <dc:format>image/svg+xml</dc:format>
        <dc:type
           rdf:resource="http://purl.org/dc/dcmitype/StillImage" />
        <dc:title></dc:title>
      </cc:Work>
    </rdf:RDF>
  </metadata>
  <g
     inkscape:label="Layer 1"
     inkscape:groupmode="layer"
     id="layer1"
     transform="translate(-10.447083,-25.593905)">
    <g
       aria-label="Company1"
       id="text884"
       style="font-size:7.06907px;line-height:1;font-family:'Open Sans';-inkscape-font-specification:'Open Sans';letter-spacing:0px;word-spacing:0px;writing-mode:lr-tb;stroke-width:0.264583">
      <text
         xml:space="preserve"
         style="font-size:12.0359px;line-height:1;font-family:'Open Sans';-inkscape-font-specification:'Open Sans';letter-spacing:0px;word-spacing:0px;writing-mode:lr-tb;stroke-width:0.070004"
         x="9.8573236"
         y="70.136917"
         id="text846-1"><tspan
           sodipodi:role="line"
           id="tspan844-0"
           x="9.8573236"
           y="70.136917"
           style="font-style:normal;font-variant:normal;font-weight:bold;font-stretch:normal;font-family:Oswald;-inkscape-font-specification:'Oswald Bold';stroke-width:0.070004">Company</tspan></text>
      <g
         id="g6"
         transform="matrix(0.12859828,0,0,0.12859828,17.794683,25.564056)"
         style="font-size:7.06907px;line-height:1;font-family:'Open Sans';-inkscape-font-specification:'Open Sans';letter-spacing:0px;word-spacing:0px;writing-mode:lr-tb;stroke-width:0.544363">
        <path
           id="path2-7"
           fill="#000000"
           d="m 245.23538,153.52383 c 14.01149,-14.01149 14.01104,-36.81082 -4.5e-4,-50.82276 -6.78716,-6.787605 -15.81206,-10.525295 -25.41116,-10.525295 -2.27921,0 -4.52326,0.207774 -6.71188,0.617464 9.53825,-6.524394 15.71921,-17.495436 15.71921,-29.694648 0,-19.815661 -16.12124,-35.936901 -35.9369,-35.936901 -12.22355,0 -23.21352,6.205747 -29.73296,15.776 2.15707,-11.377127 -1.22637,-23.536676 -9.86952,-32.179831 -6.78716,-6.7876055 -15.81206,-10.52574632 -25.41116,-10.52574632 -9.5991,0 -18.624,3.73814082 -25.41115,10.52574632 C 93.825803,19.401014 90.442817,31.561014 92.599887,42.938141 86.080451,33.367887 75.090028,27.16169 62.866479,27.16169 c -19.815662,0 -35.936902,16.12124 -35.936902,35.936901 0,12.199663 6.180507,23.170254 15.718761,29.694198 -2.18862,-0.40924 -4.431775,-0.617014 -6.711437,-0.617014 -9.599098,0 -18.623549,3.738141 -25.411154,10.525745 C 3.7381409,109.48913 0,118.51403 0,128.11268 c 0,9.59909 3.7381409,18.62354 10.525747,25.4116 6.787605,6.78716 15.812506,10.5253 25.411154,10.5253 2.279212,0 4.522367,-0.20778 6.711437,-0.61747 -9.538254,6.5244 -15.718761,17.49544 -15.718761,29.69465 0,19.81566 16.12124,35.93645 35.936902,35.93645 12.223549,0 23.214422,-6.20575 29.733408,-15.776 -2.15707,11.37758 1.226367,23.53758 9.869523,32.18073 6.7876,6.78716 15.8125,10.5253 25.41115,10.5253 9.5991,0 18.624,-3.73814 25.41116,-10.52575 8.64315,-8.64315 12.02614,-20.8036 9.86907,-32.18073 6.51943,9.57025 17.50986,15.77645 29.73341,15.77645 19.81566,0 35.9369,-16.12079 35.9369,-35.93645 0,-12.19921 -6.18096,-23.17025 -15.71876,-29.69465 2.18862,0.40969 4.43222,0.61747 6.71143,0.61747 9.5991,0 18.624,-3.73814 25.41161,-10.52575"
           style="stroke-width:1.06946" />
        <path
           id="path4"
           fill="#ffb13b"
           d="m 234.39144,113.53825 c -8.04913,-8.04867 -21.09927,-8.04867 -29.1484,0 h -42.18411 l 29.82896,-29.828504 c 11.38298,0 20.6107,-9.227718 20.6107,-20.611155 0,-11.382985 -9.22772,-20.611154 -20.6107,-20.611154 -11.38344,0 -20.61116,9.228169 -20.61116,20.611154 L 142.44822,92.927549 V 50.743437 c 8.04868,-8.049127 8.04868,-21.099268 -4.5e-4,-29.148395 -8.04912,-8.049126 -21.09926,-8.049126 -29.14839,0 -8.04913,8.049127 -8.04913,21.099268 0,29.148395 V 92.927549 L 83.470873,63.098591 c 0,-11.382985 -9.227718,-20.611154 -20.611155,-20.611154 -11.382986,0 -20.611155,9.228169 -20.611155,20.611154 0,11.383437 9.228169,20.611155 20.611155,20.611155 L 92.688225,113.53825 H 50.504563 c -8.049577,-8.04912 -21.099718,-8.04867 -29.148845,4.5e-4 -8.049126,8.04913 -8.049126,21.09927 0,29.1484 8.049127,8.04912 21.099719,8.04912 29.148845,0 h 42.183662 l -29.828507,29.82851 c -11.382986,0 -20.611155,9.22771 -20.611155,20.61115 0,11.38299 9.228169,20.61115 20.611155,20.61115 11.383437,0 20.611155,-9.22816 20.611155,-20.61115 l 29.828507,-29.82851 v 42.18366 c -8.04913,8.04913 -8.04913,21.09972 0,29.14885 8.04913,8.04913 21.09972,8.04913 29.14884,0 8.04868,-8.04913 8.04868,-21.09972 0,-29.14885 v -42.18366 l 29.82851,29.82851 c 0,11.38299 9.22772,20.61115 20.61116,20.61115 11.38298,0 20.6107,-9.22816 20.6107,-20.61115 0,-11.38344 -9.22772,-20.61115 -20.6107,-20.61115 L 163.05893,142.6871 h 42.18411 c 8.04913,8.04912 21.09927,8.04912 29.1484,0 8.04912,-8.04913 8.04912,-21.09972 0,-29.14885"
           style="stroke-width:1.06946" />
      </g>
      <text
         id="text846-1-2"
         y="70.136917"
         x="54.836525"
         style="font-size:12.0359px;line-height:1;font-family:'Open Sans';-inkscape-font-specification:'Open Sans';letter-spacing:0px;word-spacing:0px;writing-mode:lr-tb;fill:#ffb13b;fill-opacity:1;stroke-width:0.070004"
         xml:space="preserve"><tspan
           style="font-style:normal;font-variant:normal;font-weight:bold;font-stretch:normal;font-family:Oswald;-inkscape-font-specification:'Oswald Bold';fill:#ffb13b;fill-opacity:1;stroke-width:0.070004"
           y="70.136917"
           x="54.836525"
           id="tspan844-0-0"
           sodipodi:role="line">2</tspan></text>
    </g>
  </g>
</svg>
