<?xml version="1.0" encoding="UTF-8" standalone="no"?>
<svg
   xmlns:dc="http://purl.org/dc/elements/1.1/"
   xmlns:cc="http://creativecommons.org/ns#"
   xmlns:rdf="http://www.w3.org/1999/02/22-rdf-syntax-ns#"
   xmlns:svg="http://www.w3.org/2000/svg"
   xmlns="http://www.w3.org/2000/svg"
   xmlns:sodipodi="http://sodipodi.sourceforge.net/DTD/sodipodi-0.dtd"
   xmlns:inkscape="http://www.inkscape.org/namespaces/inkscape"
   width="112.64057mm"
   height="28.596802mm"
   viewBox="0 0 112.64057 28.596801"
   version="1.1"
   id="svg8"
   inkscape:version="1.0 (4035a4fb49, 2020-05-01)"
   sodipodi:docname="University2_Logo.svg">
  <defs
     id="defs2" />
  <sodipodi:namedview
     id="base"
     pagecolor="#ffffff"
     bordercolor="#666666"
     borderopacity="1.0"
     inkscape:pageopacity="0.0"
     inkscape:pageshadow="2"
     inkscape:zoom="1.3497283"
     inkscape:cx="346.84369"
     inkscape:cy="51.225202"
     inkscape:document-units="mm"
     inkscape:current-layer="text884"
     inkscape:document-rotation="0"
     showgrid="false"
     showguides="true"
     inkscape:guide-bbox="true"
     fit-margin-top="0"
     fit-margin-left="0"
     fit-margin-right="0"
     fit-margin-bottom="0"
     inkscape:window-width="1920"
     inkscape:window-height="1023"
     inkscape:window-x="0"
     inkscape:window-y="0"
     inkscape:window-maximized="1">
    <sodipodi:guide
       position="25.53284,18.383647"
       orientation="0,-1"
       id="guide837" />
    <sodipodi:guide
       position="19.470782,7.8838569"
       orientation="0,-1"
       id="guide859" />
  </sodipodi:namedview>
  <metadata
     id="metadata5">
    <rdf:RDF>
      <cc:Work
         rdf:about="">
        <dc:format>image/svg+xml</dc:format>
        <dc:type
           rdf:resource="http://purl.org/dc/dcmitype/StillImage" />
        <dc:title></dc:title>
      </cc:Work>
    </rdf:RDF>
  </metadata>
  <g
     inkscape:label="Layer 1"
     inkscape:groupmode="layer"
     id="layer1"
     transform="translate(-13.230941,-29.951726)">
    <g
       aria-label="Company1"
       id="text884"
       style="font-size:7.06907px;line-height:1;font-family:'Open Sans';-inkscape-font-specification:'Open Sans';letter-spacing:0px;word-spacing:0px;writing-mode:lr-tb;stroke-width:0.264583">
      <path
         style="font-size:7.06907px;line-height:1;font-family:'Open Sans';-inkscape-font-specification:'Open Sans';letter-spacing:0px;word-spacing:0px;writing-mode:lr-tb;fill:#c30000;fill-opacity:1;stroke-width:0.0700042"
         d="m 43.870351,36.07963 v 1.02131 a 0.51065689,0.51065689 0 0 1 -0.51066,0.51066 h -1.53197 v 0.76598 c 0,0.42302 -0.34297,0.76599 -0.76598,0.76599 h -25.02219 c -0.42302,0 -0.76599,-0.34297 -0.76599,-0.76599 V 37.6116 h -1.53197 a 0.51065689,0.51065689 0 0 1 -0.51065,-0.51066 v -1.02131 a 0.51065689,0.51065689 0 0 1 0.31539,-0.47185 l 14.80905,-5.617226 a 0.51040157,0.51040157 0 0 1 0.39053,0 l 14.80905,5.617226 a 0.51065689,0.51065689 0 0 1 0.31539,0.47185 z m -1.53197,19.40496 h -27.57547 c -0.8461,0 -1.53197,0.685871 -1.53197,1.531967 v 1.02131 a 0.51065689,0.51065689 0 0 0 0.51065,0.51066 h 29.6181 a 0.51065689,0.51065689 0 0 0 0.51066,-0.51066 v -1.02131 c 0,-0.846096 -0.68588,-1.531967 -1.53197,-1.531967 z M 18.337511,40.16488 v 12.255771 h -2.29796 c -0.42302,0 -0.76599,0.342969 -0.76599,0.765979 v 1.27664 h 26.55416 v -1.27664 c 0,-0.42301 -0.34297,-0.765979 -0.76598,-0.765979 h -2.29796 V 40.16488 h -4.08526 v 12.255771 h -4.08525 V 40.16488 h -4.08525 v 12.255771 h -4.08526 V 40.16488 Z"
         id="path2-3" />
      <text
         id="text886-5"
         y="49.693298"
         x="47.713593"
         style="font-size:13.2328px;line-height:1;font-family:'Open Sans';-inkscape-font-specification:'Open Sans';letter-spacing:0px;word-spacing:0px;writing-mode:lr-tb;fill:#000000;fill-opacity:1;stroke-width:0.0700042"
         xml:space="preserve"><tspan
           style="font-style:normal;font-variant:normal;font-weight:800;font-stretch:normal;font-family:'Open Sans';-inkscape-font-specification:'Open Sans Ultra-Bold';fill:#000000;fill-opacity:1;stroke-width:0.0700042"
           y="49.693298"
           x="47.713593"
           id="tspan884-6"
           sodipodi:role="line">University</tspan></text>
      <text
         xml:space="preserve"
         style="font-size:13.2328px;line-height:1;font-family:'Open Sans';-inkscape-font-specification:'Open Sans';letter-spacing:0px;word-spacing:0px;writing-mode:lr-tb;fill:#c30000;fill-opacity:1;stroke-width:0.0700042"
         x="118.6219"
         y="49.693298"
         id="text886-5-6"><tspan
           sodipodi:role="line"
           id="tspan884-6-1"
           x="118.6219"
           y="49.693298"
           style="font-style:normal;font-variant:normal;font-weight:800;font-stretch:normal;font-family:'Open Sans';-inkscape-font-specification:'Open Sans Ultra-Bold';fill:#c30000;fill-opacity:1;stroke-width:0.0700042">2</tspan></text>
    </g>
  </g>
</svg>
